<svg width="20" height="17" viewBox="0 0 20 17" fill="none" xmlns="http://www.w3.org/2000/svg">
<path d="M17.9525 4.2154C17.9605 4.39157 17.9645 4.56855 17.9645 4.74632C17.9645 10.1687 13.8368 16.4209 6.29028 16.4209C3.97289 16.4209 1.81582 15.7416 0 14.5773C0.32141 14.6154 0.647596 14.6349 0.978947 14.6349C2.9015 14.6349 4.67047 13.9789 6.07521 12.8781C4.27923 12.8452 2.7642 11.6588 2.242 10.0287C2.49281 10.0767 2.74956 10.1025 3.01422 10.1025C3.388 10.1025 3.75066 10.0521 4.09512 9.95844C2.21821 9.58141 0.803526 7.92317 0.803526 5.93514C0.803526 5.91768 0.803526 5.90061 0.803956 5.88355C1.35711 6.19067 1.98964 6.37521 2.66259 6.39662C1.56145 5.66097 0.837264 4.40503 0.837264 2.98127C0.837264 2.22933 1.03922 1.52459 1.39276 0.918638C3.41653 3.40107 6.4394 5.03435 9.84963 5.20578C9.7798 4.90539 9.74325 4.59231 9.74325 4.27051C9.74325 2.00471 11.5805 0.16748 13.8463 0.16748C15.0272 0.16748 16.093 0.665878 16.8414 1.46306C17.7763 1.27934 18.654 0.937699 19.4468 0.467443C19.1405 1.42576 18.4905 2.22968 17.643 2.73759C18.4731 2.63837 19.2643 2.41778 20 2.0916C19.4501 2.91422 18.7541 3.63681 17.9525 4.2154Z" fill="black"/>
</svg>
