<svg width="20" height="21" viewBox="0 0 20 21" fill="none" xmlns="http://www.w3.org/2000/svg">
<path d="M19.9998 10.2323C19.9764 8.31491 19.4089 6.44414 18.3641 4.84036C17.3194 3.23657 15.8409 1.96655 14.1029 1.17988C12.3647 0.393201 10.4394 0.122637 8.55361 0.400031C6.66785 0.677436 4.90009 1.49124 3.45859 2.74564C2.01707 4.00003 0.96183 5.64275 0.417127 7.48034C-0.127564 9.31795 -0.139039 11.2739 0.384076 13.1178C0.907191 14.9618 1.9431 16.6168 3.3698 17.8883C4.79649 19.1597 6.55458 19.9945 8.43698 20.2942V13.1628H5.93692V10.2323H8.43698V8.00613C8.37911 7.48853 8.43486 6.96442 8.60036 6.47083C8.76587 5.97725 9.037 5.52622 9.39464 5.1496C9.75227 4.77295 10.1877 4.47989 10.6702 4.29109C11.1527 4.10228 11.6706 4.02233 12.1871 4.05689C12.9369 4.06722 13.6849 4.13449 14.4247 4.25813V6.77359H13.1746C12.9591 6.74624 12.7401 6.76797 12.5341 6.83718C12.328 6.9064 12.14 7.02132 11.984 7.17345C11.828 7.32559 11.708 7.51105 11.6328 7.7161C11.5576 7.92124 11.5292 8.14071 11.5496 8.3583V10.2575H14.3247L13.8746 13.188H11.5621V20.2313C13.9245 19.8554 16.0748 18.6399 17.6229 16.8054C19.1709 14.9708 20.0142 12.6389 19.9998 10.2323Z" fill="black"/>
</svg>
